Coordinates
version=1
nRows=32
nColumns=22
inDegrees=yes

Units are S.I. units (second, meters, Newtons, ...)
If the header above contains a line with 'inDegrees', this indicates whether rotational values are in degrees (yes) or radians (no).

endheader
time	pelvis_tilt	pelvis_list	pelvis_rotation	pelvis_tx	pelvis_ty	pelvis_tz	hip_flexion_r	hip_adduction_r	hip_rotation_r	knee_angle_r	ankle_angle_r	subtalar_angle_r	hip_flexion_l	hip_adduction_l	hip_rotation_l	knee_angle_l	ankle_angle_l	subtalar_angle_l	lumbar_extension	lumbar_bending	lumbar_rotation
      6.04000000	     -0.70140482	      7.83968747	   -513.91532211	      0.57463129	      0.93855947	      0.98968293	     -3.09472766	     14.48499107	     19.22159508	    -23.75676256	     16.80362488	     -5.32027357	     28.53757009	     -6.77633488	     23.41760768	    -13.45856953	      4.83875396	      5.42121865	      2.35666776	      7.29315165	     -2.29731088
      6.05000000	     -0.51923918	      7.87404655	   -514.68998874	      0.56792022	      0.93856377	      0.99382788	     -3.23722061	     14.32217613	     19.70239135	    -24.21792356	     16.50851239	     -4.74506516	     28.58601543	     -6.69591242	     23.43883410	    -14.31349387	      3.67308335	      5.67948404	      2.59943419	      7.19061968	     -2.48040076
      6.06000000	     -0.34985180	      7.85795164	   -515.42549879	      0.56115661	      0.93881676	      0.99801043	     -3.36326364	     14.13084372	     20.11416964	    -24.74170517	     16.14010146	     -4.23443063	     28.60924818	     -6.57228134	     23.37403729	    -15.20643030	      2.61405453	      5.94367201	      2.81418348	      7.04260684	     -2.67742465
      6.07000000	     -0.20187894	      7.80406421	   -516.10372104	      0.55432306	      0.93930451	      1.00224655	     -3.47710183	     13.92405005	     20.43770889	    -25.31657623	     15.68834911	     -3.66362079	     28.60592002	     -6.41969859	     23.22038073	    -16.12105638	      1.73908948	      6.22635640	      3.00290126	      6.86239447	     -2.91707106
      6.08000000	     -0.08457186	      7.72308269	   -516.72520356	      0.54741992	      0.94000624	      1.00652387	     -3.58109775	     13.71519195	     20.67444640	    -25.94442171	     15.15751662	     -3.00755741	     28.56563958	     -6.25819945	     22.97425952	    -17.03556262	      1.07455679	      6.51232416	      3.16079728	      6.66347855	     -3.18232565
      6.09000000	      0.00529720	      7.62703836	   -517.30212206	      0.54044992	      0.94090233	      1.01080207	     -3.65999554	     13.51398167	     20.82364343	    -26.63387467	     14.53115633	     -2.26902264	     28.47026649	     -6.11560015	     22.62663657	    -17.89612522	      0.61654841	      6.77572744	      3.29218496	      6.45538847	     -3.47668837
      6.10000000	      0.07222818	      7.52867222	   -517.84380581	      0.53345159	      0.94195164	      1.01505733	     -3.69807119	     13.32591133	     20.87995094	    -27.38919606	     13.82052607	     -1.42747917	     28.32335356	     -6.00605150	     22.17867872	    -18.68678382	      0.34798018	      6.99632783	      3.40104075	      6.24952024	     -3.78299966
      6.11000000	      0.12891118	      7.43183101	   -518.37080039	      0.52647358	      0.94311677	      1.01926267	     -3.67106200	     13.14727839	     20.85500623	    -28.22572820	     13.03863123	     -0.50463056	     28.12940573	     -5.93429059	     21.62267763	    -19.39138941	      0.22608836	      7.14068995	      3.49406974	      6.04928520	     -4.07985129
      6.12000000	      0.18155641	      7.34740226	   -518.89411762	      0.51954435	      0.94437135	      1.02339060	     -3.55126866	     12.98179107	     20.72957561	    -29.16513486	     12.17230489	      0.59182379	     27.86810058	     -5.91311699	     21.00902849	    -19.95982378	      0.25285908	      7.18941354	      3.57737926	      5.86422265	     -4.36208692
      6.13000000	      0.24241517	      7.27044091	   -519.42061140	      0.51269454	      0.94568298	      1.02742999	     -3.33274697	     12.82012436	     20.53379228	    -30.19849246	     11.23521714	      1.82470509	     27.55491231	     -5.92283813	     20.35584698	    -20.40909428	      0.39629252	      7.11719725	      3.66033135	      5.68570447	     -4.62130615
      6.14000000	      0.30822398	      7.20584812	   -519.96140757	      0.50597164	      0.94702387	      1.03135008	     -3.00177264	     12.66694678	     20.25800271	    -31.34793170	     10.25357216	      3.15246494	     27.20270969	     -5.96606189	     19.65333051	    -20.76002243	      0.60458854	      6.93617328	      3.73329466	      5.52311861	     -4.85047514
      6.15000000	      0.37719731	      7.15530683	   -520.50740844	      0.49939290	      0.94837131	      1.03515177	     -2.55686033	     12.52364428	     19.89530234	    -32.61272785	      9.23525213	      4.58283868	     26.81781304	     -6.03168412	     18.94315831	    -21.02719721	      0.87671049	      6.66456447	      3.79604927	      5.37729323	     -5.05959796
      6.16000000	      0.44870243	      7.11638712	   -521.06019667	      0.49296870	      0.94970838	      1.03883157	     -1.99863370	     12.38634988	     19.44707355	    -33.99321633	      8.18541424	      6.07361033	     26.40677582	     -6.11277282	     18.23555697	    -21.22505367	      1.19987859	      6.33498760	      3.84644868	      5.24686300	     -5.24906456
      6.17000000	      0.51864956	      7.08747069	   -521.61063340	      0.48671327	      0.95101873	      1.04239667	     -1.33312081	     12.25407995	     18.90877411	    -35.48531471	      7.11456561	      7.55943934	     25.98086129	     -6.19978536	     17.54811488	    -21.37862870	      1.56307657	      5.98182606	      3.88082351	      5.13095636	     -5.42815006
      6.18000000	      0.59362767	      7.06791354	   -522.15045788	      0.48063971	      0.95226190	      1.04586982	     -0.55249018	     12.11989676	     18.26494902	    -37.08998032	      6.02954035	      8.96886720	     25.56385937	     -6.28204763	     16.88373507	    -21.51426774	      1.96754085	      5.62608905	      3.90605155	      5.02844861	     -5.60733850
      6.19000000	      0.65281155	      7.04621886	   -522.68410738	      0.47473286	      0.95349332	      1.04924251	      0.30086863	     11.97790115	     17.55181186	    -38.77875929	      4.91770932	     10.31573893	     25.11680118	     -6.36019452	     16.25935306	    -21.60992612	      2.36160555	      5.29576440	      3.89729075	      4.93294458	     -5.77167768
      6.20000000	      0.72066796	      7.02834743	   -523.19225746	      0.46903033	      0.95462452	      1.05254388	      1.25814418	     11.82033920	     16.73379930	    -40.55373550	      3.81253521	     11.45544014	     24.70210142	     -6.41748496	     15.67487840	    -21.71727865	      2.78263618	      4.98380287	      3.88372427	      4.84269520	     -5.95251926
      6.21000000	      0.78513163	      6.99861740	   -523.68259536	      0.46352206	      0.95568916	      1.05578125	      2.28479411	     11.62898409	     15.83957630	    -42.38705710	      2.72431771	     12.39935195	     24.29116193	     -6.44875634	     15.12201557	    -21.81836040	      3.19957700	      4.69597339	      3.84847193	      4.74659092	     -6.13144262
      6.22000000	      0.85219339	      6.95426535	   -524.15232092	      0.45820884	      0.95667342	      1.05897649	      3.37291723	     11.39042866	     14.87424493	    -44.25418805	      1.67795768	     13.10745987	     23.88994105	     -6.44751921	     14.60205731	    -21.91214767	      3.60957650	      4.43088691	      3.80067335	      4.64147607	     -6.31117576
      6.23000000	      0.91781067	      6.87867588	   -524.60443150	      0.45308748	      0.95758144	      1.06214555	      4.49709727	     11.07849792	     13.85106735	    -46.12621346	      0.73440717	     13.57949619	     23.49225370	     -6.40094502	     14.09127394	    -22.00360127	      4.01797113	      4.19485899	      3.73233955	      4.51226605	     -6.48775206
      6.24000000	      0.98964761	      6.78281497	   -525.03994543	      0.44814601	      0.95842438	      1.06531181	      5.64700148	     10.69440478	     12.79356508	    -47.95943541	     -0.08641152	     13.93453612	     23.09166518	     -6.31615509	     13.61993578	    -22.06308195	      4.38883549	      3.94547131	      3.65980267	      4.37260243	     -6.65423251
      6.25000000	      1.05378002	      6.63753699	   -525.46603929	      0.44336946	      0.95923408	      1.06849019	      6.78276705	     10.20583271	     11.71904571	    -49.72388293	     -0.71196184	     14.11090161	     22.66229819	     -6.17215009	     13.16264514	    -22.08957160	      4.72564264	      3.73879020	      3.56065495	      4.19640104	     -6.79771257
      6.26000000	      1.15348075	      6.49632845	   -525.86388422	      0.43875576	      0.95992079	      1.07168595	      7.94824533	      9.65217746	     10.60762459	    -51.37881933	     -1.10609287	     14.08158250	     22.29079819	     -6.00256717	     12.72836694	    -22.11774383	      5.05744171	      3.43368227	      3.50344460	      4.02870334	     -6.96922364
      6.27000000	      1.24011066	      6.31829200	   -526.24830608	      0.43427232	      0.96060732	      1.07489531	      9.05895297	      9.01582133	      9.50892621	    -52.88634092	     -1.25478185	     13.75659679	     21.88583936	     -5.78949613	     12.30455888	    -22.10529617	      5.34876342	      3.14446213	      3.42445983	      3.83938681	     -7.12700185
      6.28000000	      1.31723411	      6.11966135	   -526.61174453	      0.42988409	      0.96129587	      1.07809997	     10.10652205	      8.32021492	      8.42192834	    -54.21103656	     -1.17223149	     13.09072897	     21.45118402	     -5.54884375	     11.90377232	    -22.04363108	      5.61621013	      2.86093539	      3.33729954	      3.63895510	     -7.28643504
      6.29000000	      1.37152149	      5.92247106	   -526.94310175	      0.42558590	      0.96200083	      1.08127132	     11.06482514	      7.60948627	      7.36128703	    -55.32100321	     -0.82938314	     12.17226807	     20.98996322	     -5.30416013	     11.53909420	    -21.94701788	      5.87065779	      2.60178399	      3.23429920	      3.44762502	     -7.45392775
      6.30000000	      1.41658786	      5.74869189	   -527.24793739	      0.42137526	      0.96271734	      1.08435912	     11.94973267	      6.92724648	      6.35064450	    -56.20230169	     -0.31093160	     11.13391122	     20.52955677	     -5.08070256	     11.18927265	    -21.82530910	      6.09901111	      2.35684409	      3.13641695	      3.28101097	     -7.63535740
      6.31000000	      1.44465314	      5.61280909	   -527.52271211	      0.41724616	      0.96345532	      1.08733333	     12.74864756	      6.31111346	      5.39973805	    -56.84063323	      0.34023184	     10.06076934	     20.06497780	     -4.89575832	     10.86954712	    -21.67903799	      6.31537992	      2.12506198	      3.03900435	      3.15073503	     -7.82930665
      6.32000000	      1.45636413	      5.52472814	   -527.76503990	      0.41321138	      0.96421263	      1.09016492	     13.46417854	      5.78916176	      4.51609051	    -57.23378370	      1.06527591	      9.06755115	     19.60720887	     -4.76038720	     10.57856590	    -21.51917951	      6.52395539	      1.91074235	      2.94181586	      3.06415770	     -8.03919381
      6.33000000	      1.45604352	      5.49917026	   -527.97879600	      0.40924626	      0.96498513	      1.09282740	     14.09896814	      5.39445450	      3.71036145	    -57.37945666	      1.82738505	      8.19525041	     19.15652017	     -4.69208057	     10.32767806	    -21.33840050	      6.71941898	      1.71152819	      2.85591633	      3.03293117	     -8.25877528
      6.34000000	      1.44807512	      5.52931635	   -528.16792808	      0.40537888	      0.96575187	      1.09531153	     14.66746758	      5.12299132	      2.98055237	    -57.29668656	      2.57104580	      7.50673511	     18.72776676	     -4.68467731	     10.09865661	    -21.15663115	      6.91592158	      1.52961719	      2.77678848	      3.05087618	     -8.48820105
      6.35000000	      1.43848505	      5.60709313	   -528.33487721	      0.40160524	      0.96649879	      1.09762498	     15.17887220	      4.96434036	      2.32214022	    -57.00239155	      3.28620285	      7.01137742	     18.32363552	     -4.72870665	      9.89526588	    -20.97516041	      7.11085410	      1.36560536	      2.70823379	      3.10856196	     -8.72096734
